<svg xmlns="http://www.w3.org/2000/svg" width="616" height="630" viewBox="0 0 616 630" fill="none"><g clip-path="url(#clip0_2004_212)"><path d="M305.826 83.1223C344.155 59.3461 431.549 181.982 362.425 252.87C347.053 268.632 342.492 258.993 322.382 262.307C311.055 264.172 306.443 240.27 255.501 255.238C222.011 265.079 226.912 219.127 179.41 229.849C75.6995 253.248 215.345 76.6081 305.838 83.1223H305.826Z" fill="black"></path><path fill-rule="evenodd" clip-rule="evenodd" d="M314.23 82.8199C308.799 92.2321 294.486 94.3111 281.432 90.2539C267.446 85.9069 260.189 70.6987 265.922 57.2293C269.399 49.0519 275.825 42.0085 285.426 38.2537C295.028 34.4989 305.725 38.5183 310.563 47.5273C316.7 58.9555 318.892 74.7685 314.243 82.8325L314.23 82.8199Z" fill="black"></path><path d="M328.896 183.758C330.03 178.076 332.424 173.59 335.461 170.654C339.896 166.37 345.767 165.236 351.173 168.197C354.348 169.936 357.284 173.162 359.64 178.051C357.574 180.268 355.268 181.138 352.786 181.251C347.342 171.184 338.989 174.208 336.481 184.338C333.76 185.044 331.24 184.64 328.896 183.746V183.758Z" fill="#FFF8F5"></path><path d="M330.307 178.807C331.592 175.43 333.369 172.683 335.46 170.654C339.895 166.37 345.767 165.236 351.172 168.197C353.062 169.231 354.864 170.793 356.502 172.91C354.007 174.17 351.324 175.279 348.489 176.198C345.2 174.056 341.697 175.052 339.19 178.34C336.128 178.769 333.129 178.92 330.294 178.794L330.307 178.807Z" fill="white" stroke="black" stroke-width="2.52" stroke-miterlimit="10"></path><path fill-rule="evenodd" clip-rule="evenodd" d="M314.809 173.426C310.487 167.744 289.924 161.482 286.358 164.279C285.388 183.834 281.507 209.614 277.45 219.618C288.425 223.121 310.198 221.861 319.711 219.379C314.645 209.903 313.826 180.671 314.809 173.414V173.426Z" fill="white" stroke="#020202" stroke-width="2.52" stroke-miterlimit="10"></path><path fill-rule="evenodd" clip-rule="evenodd" d="M335.788 136.546C341.206 135.047 346.902 138.575 348.514 144.409C350.127 150.255 347.053 156.202 341.635 157.689C336.217 159.188 330.522 155.66 328.909 149.827C327.296 143.993 330.37 138.033 335.788 136.546Z" fill="white" stroke="#020202" stroke-width="2.52" stroke-miterlimit="10"></path><path fill-rule="evenodd" clip-rule="evenodd" d="M286.346 164.279C265.291 175.342 257.945 133.988 284.582 144.963C291.26 134.618 303.469 132.665 304.603 113.929C309.177 113.614 313.65 113.69 318.01 114.269C328.052 115.592 336.506 122.333 340.236 131.758C350.089 156.656 338.787 182.158 322.747 187.551C311.533 191.331 299.147 181.755 286.333 164.291L286.346 164.279Z" fill="white" stroke="#020202" stroke-width="2.52" stroke-miterlimit="10"></path><path d="M273.406 152.8C272.738 153.191 271.894 152.977 271.491 152.309C271.1 151.641 271.314 150.797 271.982 150.394C272.234 150.242 272.499 150.104 272.763 149.978C274.628 149.071 276.669 148.768 278.622 149.31C280.563 149.839 282.365 151.187 283.763 153.544C283.94 153.833 284.103 154.148 284.267 154.476C284.494 154.892 284.519 155.408 284.267 155.849C283.889 156.517 283.032 156.744 282.365 156.366C281.533 155.887 280.752 155.572 280.021 155.383C279.29 155.194 278.597 155.156 277.98 155.219C277.211 155.308 276.531 154.753 276.443 153.985C276.354 153.216 276.909 152.536 277.677 152.447C278.093 152.397 278.509 152.384 278.95 152.41C278.61 152.221 278.257 152.069 277.892 151.969C276.632 151.616 275.271 151.843 273.986 152.46C273.797 152.548 273.608 152.649 273.406 152.775V152.8Z" fill="black"></path><path d="M285.174 165.022C284.758 164.367 284.96 163.51 285.615 163.107C286.27 162.691 287.127 162.893 287.53 163.548C289.698 166.988 292.318 170.529 295.481 173.905C298.644 177.27 302.335 180.47 306.67 183.217C307.312 183.633 307.514 184.489 307.098 185.132C306.682 185.775 305.826 185.976 305.183 185.56C300.634 182.662 296.766 179.323 293.465 175.808C290.164 172.293 287.442 168.613 285.187 165.035L285.174 165.022Z" fill="black"></path><path d="M252.49 183.317C256.308 177.962 260.882 174.422 265.38 172.809C271.97 170.428 278.572 171.99 282.793 177.584C285.275 180.86 286.813 185.573 286.976 191.734C283.801 193.057 281.004 192.893 278.383 191.86C277.438 178.907 267.371 178.151 260.063 187.475C256.913 186.934 254.494 185.359 252.478 183.33L252.49 183.317Z" fill="#FFF8F5"></path><path d="M256.258 178.844C259.156 175.946 262.293 173.918 265.393 172.809C271.982 170.428 278.585 171.99 282.806 177.584C284.28 179.537 285.414 181.982 286.132 184.943C282.97 185.094 279.668 184.993 276.304 184.615C273.898 180.86 269.803 180.256 265.682 182.511C262.306 181.528 259.143 180.293 256.258 178.844Z" fill="white" stroke="black" stroke-width="2.52" stroke-miterlimit="10"></path><path fill-rule="evenodd" clip-rule="evenodd" d="M307.313 508.271L278.862 507.641L276.871 587.349C301.97 597.227 451.142 600.692 464.75 573.275C358.305 547.558 369.38 461.639 307.313 508.271Z" fill="white" stroke="black" stroke-width="2.52" stroke-miterlimit="10"></path><path fill-rule="evenodd" clip-rule="evenodd" d="M424.581 590.007C445.22 586.656 460.781 581.288 464.75 573.275C448.004 569.23 434.157 563.686 422.489 557.411C421.229 561.645 420.549 566.181 420.549 570.893C420.549 577.76 421.998 584.249 424.581 590.007Z" fill="white" stroke="#231F20" stroke-width="2.52" stroke-miterlimit="10"></path><path fill-rule="evenodd" clip-rule="evenodd" d="M330.673 586.013L328.682 506.306C337.061 501.593 440.117 466.326 442.889 459.723C434.989 443.482 432.872 422.024 380.09 408.429C643.758 314.156 631.208 569.243 330.673 586.001V586.013Z" fill="black"></path><path fill-rule="evenodd" clip-rule="evenodd" d="M328.922 515.932L328.683 506.318C337.062 501.606 440.117 466.338 442.889 459.736C434.989 443.495 432.872 422.037 380.091 408.441C473.86 374.913 532.664 385.598 556.037 413.998C524.739 467.346 436.803 507.729 328.922 515.919V515.932Z" fill="#1C1B1B"></path><path fill-rule="evenodd" clip-rule="evenodd" d="M282.629 581.83C299.287 561.884 398.89 511.119 392.716 480.186C383.568 434.284 257.593 410.508 222.263 421.583C24.3672 350.847 -40.8756 521.048 142.782 571.926C179.839 582.195 224.052 583.846 282.617 581.83H282.629Z" fill="black"></path><path fill-rule="evenodd" clip-rule="evenodd" d="M376.916 509.972C387.777 499.225 394.467 488.918 392.729 480.186C383.581 434.284 257.606 410.508 222.276 421.583C130.56 388.798 67.3587 407.786 44.2 442.638C92.1682 487.28 183.531 517.457 288.375 517.457C319.321 517.457 349.082 514.823 376.916 509.972Z" fill="#1C1B1B"></path><path fill-rule="evenodd" clip-rule="evenodd" d="M300.232 506.936L328.683 506.306L330.674 586.013C305.574 595.892 156.403 599.357 142.795 571.939C249.24 546.223 238.164 460.303 300.232 506.936Z" fill="white" stroke="black" stroke-width="2.52" stroke-miterlimit="10"></path><path fill-rule="evenodd" clip-rule="evenodd" d="M182.964 588.672C162.325 585.32 146.764 579.953 142.795 571.939C159.54 567.895 173.388 562.35 185.055 556.076C186.315 560.309 186.996 564.845 186.996 569.558C186.996 576.425 185.547 582.914 182.964 588.672Z" fill="white" stroke="#231F20" stroke-width="2.52" stroke-miterlimit="10"></path><path fill-rule="evenodd" clip-rule="evenodd" d="M231.562 519.158C253.751 496.15 265.62 480.929 300.232 506.936C292.206 518.755 276.922 526.743 259.383 526.743C248.963 526.743 239.349 523.921 231.562 519.158Z" fill="white" stroke="#231F20" stroke-width="2.52" stroke-miterlimit="10"></path><path d="M331.732 505.084C331.014 505.373 330.208 505.033 329.918 504.315C329.628 503.597 329.968 502.79 330.686 502.501L458.765 450.261C459.484 449.971 460.29 450.311 460.58 451.03C460.87 451.748 460.529 452.554 459.811 452.844L331.732 505.084Z" fill="white"></path><path d="M142.681 459.131C141.963 458.854 141.61 458.048 141.887 457.329C142.165 456.611 142.971 456.258 143.689 456.536L249.391 497.536C250.109 497.813 250.462 498.62 250.184 499.338C249.907 500.056 249.101 500.409 248.383 500.132L142.681 459.131Z" fill="white"></path><path fill-rule="evenodd" clip-rule="evenodd" d="M345.1 243.155C351.892 233.541 348.175 218.547 345.541 212.638C313.663 211.113 283.637 209.702 258.198 206.212C253.095 212.965 250.021 234.335 255.791 245.965C196.206 255.793 11.9435 418.03 190.045 458.552C505.12 555.534 586.226 345.278 345.088 243.142L345.1 243.155Z" fill="white" stroke="black" stroke-width="2.52" stroke-miterlimit="10"></path><path d="M262.128 247.956C261.435 247.628 261.133 246.796 261.461 246.103C261.788 245.41 262.62 245.108 263.313 245.436C268.076 247.666 278.471 249.594 289.156 250.715C300.029 251.849 311.13 252.139 316.838 251.03C317.594 250.891 318.324 251.383 318.463 252.139C318.602 252.895 318.11 253.626 317.354 253.764C311.382 254.923 299.966 254.646 288.853 253.487C277.904 252.34 267.168 250.324 262.116 247.956H262.128Z" fill="black"></path><path d="M221.355 297.574C221.469 296.818 222.187 296.289 222.943 296.403C223.699 296.516 224.228 297.234 224.115 297.99L208.34 409.487C208.226 410.243 207.508 410.773 206.752 410.659C206.147 410.571 205.694 410.092 205.593 409.525C205.278 408.379 203.804 405.052 203.363 403.931C199.129 393.158 189.767 385.157 178.78 380.571C167.73 375.972 155.079 374.825 144.306 377.786C142.946 378.164 141.597 378.605 140.262 379.134C139.544 379.411 138.737 379.058 138.46 378.34C138.183 377.622 138.536 376.816 139.254 376.539C140.64 375.997 142.089 375.518 143.588 375.102C154.953 371.977 168.272 373.174 179.864 378C191.002 382.637 200.578 390.651 205.353 401.436L221.381 297.574H221.355Z" fill="black"></path><path d="M370.64 306.823C370.488 306.067 370.967 305.336 371.723 305.172C372.479 305.021 373.21 305.5 373.374 306.256L391.102 391.696C391.253 392.452 390.774 393.183 390.018 393.347C389.262 393.511 388.532 393.019 388.368 392.263L370.64 306.823Z" fill="black"></path><path fill-rule="evenodd" clip-rule="evenodd" d="M190.057 458.564L207.395 410.684L254.368 421.659L310.564 456.095C307.464 461.462 305.284 465.998 297.371 466.402C301.454 470.32 308.686 471.933 311.433 474.592C307.628 483.714 291.664 481.118 289.408 479.972C275.082 495.243 249.769 477.25 240.13 473.936C234.296 474.516 200.931 471.089 190.07 458.577L190.057 458.564Z" fill="white" stroke="black" stroke-width="2.52" stroke-miterlimit="10"></path><path d="M249.491 456.108C248.849 455.692 248.647 454.835 249.063 454.192C249.479 453.55 250.336 453.348 250.978 453.764L290.139 478.8C290.782 479.216 290.983 480.073 290.567 480.715C290.152 481.358 289.295 481.56 288.652 481.144L249.491 456.108Z" fill="black"></path><path d="M255.388 441.013C254.771 440.546 254.645 439.677 255.098 439.06C255.564 438.442 256.434 438.316 257.051 438.77C261.612 442.184 272.763 449.417 283.889 456.41C296.716 464.474 309.467 472.185 311.987 473.319C312.693 473.634 313.008 474.453 312.693 475.159C312.378 475.864 311.559 476.179 310.853 475.864C308.207 474.68 295.317 466.88 282.402 458.779C271.201 451.735 259.974 444.452 255.388 441.025V441.013Z" fill="black"></path><path d="M262.721 428.413C262.066 428.009 261.852 427.153 262.255 426.497C262.658 425.842 263.515 425.628 264.17 426.031L311.294 454.898C311.95 455.301 312.164 456.158 311.761 456.813C311.357 457.468 310.501 457.682 309.845 457.279L262.721 428.413Z" fill="black"></path><path fill-rule="evenodd" clip-rule="evenodd" d="M388.696 245.36C394.026 248.333 396.395 254.23 393.988 258.527C391.594 262.823 385.319 263.894 380.002 260.921C374.672 257.947 372.304 252.05 374.71 247.754C377.117 243.457 383.379 242.386 388.696 245.36Z" fill="white" stroke="black" stroke-width="2.52" stroke-miterlimit="10"></path><path fill-rule="evenodd" clip-rule="evenodd" d="M416.933 254.974C408.579 250.916 385.899 249.026 373.312 251.206C366.319 252.416 369.821 266.087 373.841 267.259C370.842 271.82 370.716 279.644 374.786 285.503C372.505 289.787 373.576 298.507 377.671 302.274C381.943 317.092 389.314 317.671 397.554 318.276L397.126 454.066C477.211 452.239 459.609 359.415 433.489 295.47L416.945 254.961L416.933 254.974Z" fill="white" stroke="black" stroke-width="2.52" stroke-miterlimit="10"></path><path d="M373.967 268.645C373.198 268.708 372.53 268.141 372.467 267.372C372.404 266.603 372.971 265.936 373.74 265.873C378.062 265.507 383.518 265.721 388.797 266.2C395.601 266.83 402.14 267.901 405.656 268.796C406.399 268.985 406.853 269.741 406.676 270.484C406.5 271.228 405.731 271.681 404.988 271.492C401.548 270.623 395.185 269.564 388.545 268.96C383.429 268.493 378.15 268.292 373.967 268.645Z" fill="black"></path><path d="M374.899 286.852C374.131 286.915 373.463 286.348 373.4 285.579C373.337 284.81 373.904 284.143 374.673 284.08C378.919 283.714 383.959 283.928 388.835 284.42C395.337 285.062 401.523 286.209 405.102 287.116C405.845 287.305 406.299 288.061 406.122 288.805C405.933 289.548 405.177 290.002 404.434 289.825C400.944 288.943 394.896 287.834 388.57 287.204C383.871 286.738 378.994 286.524 374.912 286.877L374.899 286.852Z" fill="black"></path><path d="M377.659 303.66C376.89 303.66 376.273 303.03 376.273 302.261C376.273 301.493 376.903 300.875 377.671 300.875C382.359 300.9 387.336 301.253 391.935 301.77C397.025 302.349 401.687 303.156 404.976 303.987C405.719 304.176 406.173 304.932 405.996 305.676C405.807 306.419 405.051 306.873 404.308 306.696C401.12 305.89 396.597 305.109 391.645 304.554C387.096 304.038 382.207 303.698 377.671 303.672L377.659 303.66Z" fill="black"></path><path fill-rule="evenodd" clip-rule="evenodd" d="M358.935 335.727H558.972L488.74 484.835H288.715L358.935 335.727Z" fill="white"></path><path d="M359.174 334.328H561.404L489.862 486.234H286.75C310.589 435.595 334.441 384.955 358.292 334.328H359.174ZM557.007 337.126H360.056L291.147 483.449H488.097L557.007 337.126Z" fill="black"></path><path d="M231.737 486.234C230.969 486.234 230.339 485.604 230.339 484.835C230.339 484.067 230.969 483.437 231.737 483.437H488.752C489.521 483.437 490.151 484.067 490.151 484.835C490.151 485.604 489.521 486.234 488.752 486.234H231.737Z" fill="#1A1A1A"></path><path d="M424.076 422.151C430.631 422.151 435.945 416.836 435.945 410.281C435.945 403.726 430.631 398.412 424.076 398.412C417.521 398.412 412.207 403.726 412.207 410.281C412.207 416.836 417.521 422.151 424.076 422.151Z" fill="black"></path></g><defs><clipPath id="clip0_2004_212"><rect width="616" height="630" fill="white"></rect></clipPath></defs></svg>